# AST/ASF file generated using VICON BodyLanguage
# -----------------------------------------------
:version 1.10
:name VICON
:units
  mass 1.0
  length 0.45
  angle deg
:documentation
   .ast/.asf automatically generated from VICON data using
   VICON BodyBuilder and BodyLanguage model FoxedUp or BRILLIANT.MOD
:root
   order TX TY TZ RX RY RZ
   axis XYZ
   position 0 0 0  
   orientation 0 0 0 
:bonedata
  begin
     id 1 
     name lhipjoint
     direction 0.577973 -0.728611 0.367523 
     length 2.48544 
     axis 0 0 0  XYZ
  end
  begin
     id 2 
     name lfemur
     direction 0.34202 -0.939693 0  
     length 7.1921  
     axis 0 0 20  XYZ
    dof rx ry rz
    limits (-160.0 20.0)
           (-70.0 70.0)
           (-60.0 70.0)
  end
  begin
     id 3 
     name ltibia
     direction 0.34202 -0.939693 0   
     length 7.71059   
     axis 0 0 20   XYZ
    dof rx
    limits (-10.0 170.0)
  end
  begin
     id 4 
     name lfoot
     direction 0.089538 -0.246004 0.965124   
     length 2.19909   
     axis -90 7.62852e-016 20   XYZ
    dof rx rz
    limits (-45.0 90.0)
           (-70.0 20.0)
  end
  begin
     id 5 
     name ltoes
     direction 1.53544e-011 -4.21829e-011 1   
     length 1.10116   
     axis -90 7.62852e-016 20   XYZ
    dof rx
    limits (-90.0 20.0)
  end
  begin
     id 6 
     name rhipjoint
     direction -0.554414 -0.743062 0.374812   
     length 2.4371  
     axis 0 0 0  XYZ 
  end
  begin
     id 7 
     name rfemur
     direction -0.34202 -0.939693 0   
     length 7.47254   
     axis 0 0 -20   XYZ
    dof rx ry rz
    limits (-160.0 20.0)
           (-70.0 70.0)
           (-70.0 60.0)
  end
  begin
     id 8 
     name rtibia
     direction -0.34202 -0.939693 0   
     length 7.65855   
     axis 0 0 -20   XYZ
    dof rx
    limits (-10.0 170.0)
 end
 begin
     id 9 
     name rfoot
     direction -0.133779 -0.367555 0.92033   
     length 2.43006  
     axis -90 -7.62852e-016 -20   XYZ
    dof rx rz
    limits (-45.0 90.0)
           (-20.0 70.0)
  end
  begin
     id 10 
     name rtoes
     direction -1.53563e-011 -4.21889e-011 1   
     length 1.19625   
     axis -90 -7.62852e-016 -20   XYZ
    dof rx
    limits (-90.0 20.0)
  end
  begin
     id 11 
     name lowerback
     direction 0.0249066 0.998043 -0.0573585   
     length 2.08485   
     axis 0 0 0   XYZ
    dof rx ry rz
    limits (-20.0 45.0)
           (-30.0 30.0)
           (-30.0 30.0)
  end
  begin
     id 12 
     name upperback
     direction 0.0237884 0.999673 0.00943178   
     length 2.08515   
     axis 0 0 0   XYZ
    dof rx ry rz
    limits (-20.0 45.0)
           (-30.0 30.0)
           (-30.0 30.0)
  end
  begin
     id 13 
     name thorax
     direction 0.0106671 0.999301 0.0358174   
     length 2.09037   
     axis 0 0 0   XYZ
    dof rx ry rz
    limits (-20.0 45.0)
           (-30.0 30.0)
           (-30.0 30.0)
  end
  begin
     id 14 
     name lowerneck
     direction -0.0580016 0.987052 0.149546   
     length 1.84454   
     axis 0 0 0   XYZ
    dof rx ry rz
    limits (-20.0 45.0)
           (-30.0 30.0)
           (-30.0 30.0)
  end
  begin
     id 15 
     name upperneck
     direction 0.079456 0.981963 -0.171567   
     length 1.88141   
     axis 0 0 0   XYZ
    dof rx ry rz
    limits (-20.0 45.0)
           (-30.0 30.0)
           (-30.0 30.0)
  end
  begin
     id 16
     name head
     direction 0.0262167 0.9967 -0.0768276  
     length 1.89541  
     axis 0 0 0   XYZ
    dof rx ry rz
    limits (-20.0 45.0)
           (-30.0 30.0)
           (-30.0 30.0)
  end
  begin
     id 17 
     name lclavicle
     direction 0.946135 0.322134 -0.0325326  
     length 3.949  
     axis 0 0 0   XYZ
    dof ry rz
    limits (-20.0 10.0)
           (0.0 20.0)
  end
  begin
     id 18 
     name lhumerus
     direction 1 -4.48964e-011 1.94005e-028   
     length 5.10995   
     axis 180 -30 -90   XYZ
    dof rx ry rz
    limits (-60.0 90.0)
           (-90.0 90.0)
           (-90.0 90.0)
  end
  begin
     id 19
     name lradius
     direction 1 -4.48976e-011 2.87852e-027   
     length 3.21207   
     axis 180 -30 -90   XYZ
    dof rx
    limits (-10.0 170.0)
  end
  begin
     id 20
     name lwrist
     direction 1 -4.48963e-011 1.9975e-027   
     length 1.60604   
     axis 2.96054e-016 90 90   XYZ
    dof ry
    limits (-180.0 0.0)
 end
  begin
     id 21 
     name lhand
     direction 1 -4.48919e-011 4.00227e-027   
     length 0.63349   
     axis -2.5488e-015 90 90   XYZ
    dof rx rz
    limits (-90.0 90.0)
           (-45.0 45.0)
  end
  begin
     id 22 
     name lfingers
     direction 1 -4.49037e-011 7.9652e-027   
     length 0.510736   
     axis -5.0975e-015 90 90   XYZ
    dof rx
    limits (0.0 90.0)
  end
  begin
     id 23
     name lthumb
     direction 0.707107 -6.34922e-011 0.707107   
     length 0.733318   
     axis -90 45 -4.48553e-014   XYZ
    dof rx rz
    limits (-45.0 45.0)
           (-45.0 45.0)
  end
  begin
     id 24 
     name rclavicle
     direction -0.940085 0.328911 -0.0897654   
     length 3.93848  
     axis 0 0 0   XYZ 
    dof ry rz
    limits (-10.0 20.0)
           (-20.0 0.0)
  end
  begin
     id 25 
     name rhumerus
     direction -1 -4.48958e-011 3.02044e-027  
     length 5.25109   
     axis 180 30 90   XYZ
    dof rx ry rz
    limits (-90.0 60.0)
           (-90.0 90.0)
           (-90.0 90.0)
  end
  begin
     id 26 
     name rradius
     direction -1 -4.4897e-011 9.78352e-028   
     length 3.28364   
     axis 180 30 90   XYZ
    dof rx
    limits (-10.0 170.0)
  end
  begin
     id 27 
     name rwrist
     direction -1 -4.48943e-011 1.99918e-027   
     length 1.64182   
     axis 2.96054e-016 -90 -90   XYZ
    dof ry
    limits (-180.0 0.0)
  end
  begin
     id 28
     name rhand
     direction -1 -4.49024e-011 3.98478e-027   
     length 0.599745   
     axis -2.5488e-015 -90 -90   XYZ
    dof rx rz
    limits (-90.0 90.0)
           (-45.0 45.0)
  end
  begin
     id 29
     name rfingers
     direction -1 -4.48914e-011 8.00621e-027   
     length 0.48353   
     axis -5.0975e-015 -90 -90   XYZ
    dof rx
    limits (0.0 90.0)
  end
  begin
     id 30
     name rthumb
     direction -0.707107 -6.34992e-011 0.707107   
     length 0.694255   
     axis -90 -45 4.48553e-014   XYZ
    dof rx rz
    limits (-45.0 45.0)
           (-45.0 45.0)
  end
:hierarchy
  begin
    root lhipjoint rhipjoint lowerback
    lhipjoint lfemur
    lfemur ltibia
    ltibia lfoot
    lfoot ltoes
    rhipjoint rfemur
    rfemur rtibia
    rtibia rfoot
    rfoot rtoes
    lowerback upperback
    upperback thorax
    thorax lowerneck lclavicle rclavicle
    lowerneck upperneck
    upperneck head
    lclavicle lhumerus
    lhumerus lradius
    lradius lwrist
    lwrist lhand lthumb
    lhand lfingers
    rclavicle rhumerus
    rhumerus rradius
    rradius rwrist
    rwrist rhand rthumb
    rhand rfingers
  end

#!OML:ASF E:\CV Data\Top Level 1\Subject 1\Session 1\player.ASF
:FULLY-SPECIFIED
:DEGREES
99
root 9.99991 16.852 -9.18365 -171.608 -86.3206 -178.978
lowerback 17.3924 0.871368 1.897
upperback 4.40616 1.30291 1.46581
thorax -5.01075 0.513296 0.210417
lowerneck -15.5262 15.8272 -2.17775
upperneck 11.4701 21.9336 -0.952307
head 5.82147 10.4938 2.03465
rclavicle -7.55382e-015 -7.95139e-015
rhumerus -17.8955 10.2564 -79.262
rradius 122.081
rwrist -22.9989
rhand -34.7519 14.318
rfingers 7.12502
rthumb -7.90535 -15.5142
lclavicle -7.55382e-015 -7.95139e-015
lhumerus 40.6982 -66.2492 72.3155
lradius 63.6894
lwrist -0.221967
lhand -34.3658 -2.01731
lfingers 7.12502
lthumb -7.53265 27.8286
rfemur -35.3855 -1.70202 15.0994
rtibia 50.2214
rfoot -21.9437 -5.67971
rtoes -4.77496
lfemur -27.7183 10.8954 -7.36686
ltibia 35.0042
lfoot -10.6184 -1.06432
ltoes -11.7287
100
root 9.99823 16.8515 -9.18517 -171.367 -86.7642 -179.239
lowerback 17.4041 0.852538 2.00565
upperback 4.37804 1.29924 1.43042
thorax -5.04343 0.511451 0.111765
lowerneck -15.5388 15.7501 -2.12596
upperneck 11.4762 21.8209 -0.95902
head 5.8329 10.4394 2.01916
rclavicle -1.11319e-014 0
rhumerus -18.1545 10.3728 -79.6703
rradius 121.936
rwrist -22.8406
rhand -34.7865 14.2671
rfingers 7.12502
rthumb -7.93876 -15.5638
lclavicle -1.11319e-014 0
lhumerus 40.6602 -66.4073 71.9367
lradius 63.813
lwrist 0.174683
lhand -34.3714 -1.79903
lfingers 7.12502
lthumb -7.5381 28.0466
rfemur -35.2783 -1.7266 15.0631
rtibia 50.2632
rfoot -21.9854 -6.04721
rtoes -4.90517
lfemur -27.8409 10.6685 -7.38364
ltibia 34.984
lfoot -10.5989 -1.27241
ltoes -11.7855
101
root 9.9966 16.8503 -9.18534 -171.312 -87.1713 -179.318
lowerback 17.4062 0.853593 2.07326
upperback 4.3639 1.31509 1.43595
thorax -5.05783 0.51922 0.0758158
lowerneck -15.5647 15.6696 -2.14654
upperneck 11.4769 21.7175 -0.95698
head 5.83601 10.3878 2.01554
rclavicle -1.19271e-015 2.06736e-014
rhumerus -18.3759 10.539 -79.9871
rradius 121.799
rwrist -22.7418
rhand -34.8671 14.2496
rfingers 7.12502
rthumb -8.01649 -15.5783
lclavicle -1.19271e-015 2.06736e-014
lhumerus 40.6617 -66.5282 71.5813
lradius 63.9223
lwrist 0.553648
lhand -34.3388 -1.58159
lfingers 7.12502
lthumb -7.50656 28.2652
rfemur -35.1739 -1.74223 15.0388
rtibia 50.3061
rfoot -22.024 -6.39808
rtoes -5.02486
lfemur -27.9482 10.3982 -7.37576
ltibia 34.9807
lfoot -10.592 -1.41451
ltoes -11.8227
102
root 9.99527 16.8485 -9.18464 -171.457 -87.537 -179.194
lowerback 17.3931 0.869289 2.11861
upperback 4.36171 1.34572 1.45881
thorax -5.05224 0.534327 0.0679844
lowerneck -15.5999 15.5921 -2.19113
upperneck 11.4641 21.6242 -0.963171
head 5.83468 10.3398 2.01315
rclavicle 3.97569e-016 -2.06736e-014
rhumerus -18.564 10.7475 -80.2476
rradius 121.676
rwrist -22.7005
rhand -34.991 14.2647
rfingers 7.12502
rthumb -8.13612 -15.5587
lclavicle 3.97569e-016 -2.06736e-014
lhumerus 40.712 -66.6234 71.1941
lradius 64.0397
lwrist 0.91897
lhand -34.2763 -1.37059
lfingers 7.12502
lthumb -7.44624 28.4784
rfemur -35.0844 -1.74666 15.0248
rtibia 50.3529
rfoot -22.0615 -6.72982
rtoes -5.11442
lfemur -28.0499 10.1165 -7.35137
ltibia 34.9929
lfoot -10.5968 -1.5116
ltoes -11.8591
103
root 9.99449 16.846 -9.1836 -171.994 -87.8601 -178.68
lowerback 17.3754 0.900825 2.14484
upperback 4.3685 1.3935 1.49593
thorax -5.03516 0.557847 0.0826051
lowerneck -15.6287 15.516 -2.25571
upperneck 11.4256 21.538 -0.987578
head 5.82418 10.2943 2.00654
rclavicle -1.15295e-014 -1.35174e-014
rhumerus -18.726 10.9818 -80.457
rradius 121.57
rwrist -22.7067
rhand -35.1153 14.2799
rfingers 7.12502
rthumb -8.25602 -15.5388
lclavicle -1.15295e-014 -1.35174e-014
lhumerus 40.7729 -66.693 70.8159
lradius 64.1571
lwrist 1.2733
lhand -34.2077 -1.15963
lfingers 7.12502
lthumb -7.38009 28.6916
rfemur -35.0079 -1.73551 15.0262
rtibia 50.4057
rfoot -22.0988 -7.04392
rtoes -5.17452
lfemur -28.1429 9.84894 -7.30845
ltibia 35.0183
lfoot -10.6145 -1.58502
ltoes -11.8908
104
root 9.99433 16.843 -9.18241 -172.721 -88.1464 -177.971
lowerback 17.3551 0.94599 2.14613
upperback 4.38007 1.45463 1.54053
thorax -5.01244 0.588043 0.116552
lowerneck -15.6661 15.4461 -2.30981
upperneck 11.3902 21.4622 -1.03466
head 5.81975 10.2518 1.99439
rclavicle 2.0276e-014 2.14687e-014
rhumerus -18.8656 11.2261 -80.6238
rradius 121.481
rwrist -22.7363
rhand -35.2177 14.2714
rfingers 7.12502
rthumb -8.35483 -15.5433
lclavicle 2.0276e-014 2.14687e-014
lhumerus 40.7705 -66.7353 70.5539
lradius 64.2495
lwrist 1.61068
lhand -34.1226 -0.994513
lfingers 7.12502
lthumb -7.29795 28.8596
rfemur -34.9498 -1.717 15.0307
rtibia 50.4675
rfoot -22.1377 -7.33696
rtoes -5.20287
lfemur -28.2328 9.59669 -7.26281
ltibia 35.0534
lfoot -10.6419 -1.63681
ltoes -11.9486
105
root 9.99486 16.8395 -9.18158 -173.493 -88.3999 -177.211
lowerback 17.3365 1.00447 2.11481
upperback 4.38949 1.52802 1.59072
thorax -4.99397 0.624487 0.172282
lowerneck -15.6612 15.367 -2.43053
upperneck 11.2889 21.3828 -1.08202
head 5.78073 10.2089 1.98184
rclavicle 7.55382e-015 3.57812e-014
rhumerus -18.9895 11.4695 -80.7584
rradius 121.405
rwrist -22.774
rhand -35.2838 14.2414
rfingers 7.12502
rthumb -8.4187 -15.5708
lclavicle 7.55382e-015 3.57812e-014
lhumerus 40.6815 -66.7564 70.4237
lradius 64.3295
lwrist 1.94893
lhand -34.0521 -0.84287
lfingers 7.12502
lthumb -7.22988 29.0136
rfemur -34.9149 -1.69576 15.0341
rtibia 50.5387
rfoot -22.1753 -7.60844
rtoes -5.22347
lfemur -28.3264 9.38006 -7.22417
ltibia 35.0954
lfoot -10.6761 -1.68932
ltoes -12.0388
106
root 9.99598 16.8358 -9.1811 -174.128 -88.6172 -176.589
lowerback 17.327 1.07595 2.05598
upperback 4.40016 1.61368 1.63998
thorax -4.9799 0.667038 0.239913
lowerneck -15.6674 15.2939 -2.56367
upperneck 11.2014 21.3139 -1.12053
head 5.7456 10.1707 1.97583
rclavicle 9.93923e-015 9.54166e-015
rhumerus -19.0916 11.7017 -80.8675
rradius 121.335
rwrist -22.8127
rhand -35.2982 14.1761
rfingers 7.12502
rthumb -8.43257 -15.6355
lclavicle 9.93923e-015 9.54166e-015
lhumerus 40.5204 -66.7618 70.3917
lradius 64.4062
lwrist 2.30107
lhand -34.0038 -0.71329
lfingers 7.12502
lthumb -7.18322 29.1448
rfemur -34.8931 -1.66938 15.0315
rtibia 50.6178
rfoot -22.2094 -7.85933
rtoes -5.25982
lfemur -28.4114 9.20113 -7.19678
ltibia 35.1412
lfoot -10.7134 -1.7412
ltoes -12.1557
107
root 9.99757 16.8319 -9.18095 -174.461 -88.8053 -176.268
lowerback 17.3261 1.15597 1.97513
upperback 4.41135 1.70669 1.68653
thorax -4.97074 0.713258 0.31546
lowerneck -15.6819 15.2296 -2.67441
upperneck 11.1311 21.2549 -1.17029
head 5.7208 10.1362 1.96685
rclavicle -7.15625e-015 -2.46493e-014
rhumerus -19.1668 11.9223 -80.9537
rradius 121.266
rwrist -22.8523
rhand -35.2703 14.0924
rfingers 7.12502
rthumb -8.40563 -15.7203
lclavicle -7.15625e-015 -2.46493e-014
lhumerus 40.2701 -66.7553 70.466
lradius 64.5004
lwrist 2.67018
lhand -33.9566 -0.592308
lfingers 7.12502
lthumb -7.13772 29.2673
rfemur -34.8825 -1.64657 15.0218
rtibia 50.7026
rfoot -22.243 -8.08092
rtoes -5.29745
lfemur -28.4907 9.05767 -7.18169
ltibia 35.1901
lfoot -10.7512 -1.80162
ltoes -12.2726
108
root 9.99933 16.828 -9.18086 -174.333 -88.9668 -176.41
lowerback 17.3299 1.24305 1.88008
upperback 4.42585 1.80601 1.72746
thorax -4.96125 0.762597 0.391715
lowerneck -15.7201 15.176 -2.72796
upperneck 11.0924 21.2048 -1.24401
head 5.71842 10.1042 1.9495
rclavicle -1.74931e-014 -3.97569e-015
rhumerus -19.2098 12.1364 -81.0195
rradius 121.187
rwrist -22.8988
rhand -35.2253 14.0372
rfingers 7.12502
rthumb -8.3622 -15.7773
lclavicle -1.74931e-014 -3.97569e-015
lhumerus 39.9539 -66.7406 70.6192
lradius 64.6173
lwrist 3.04298
lhand -33.9033 -0.483982
lfingers 7.12502
lthumb -7.08627 29.3774
rfemur -34.8793 -1.63359 15.0039
rtibia 50.7899
rfoot -22.2761 -8.26724
rtoes -5.33561
lfemur -28.5625 8.94044 -7.17874
ltibia 35.2413
lfoot -10.7868 -1.86419
ltoes -12.3811
109
root 10.0013 16.8241 -9.18082 -174.199 -89.1111 -176.56
lowerback 17.3402 1.32271 1.78572
upperback 4.44162 1.89532 1.76134
thorax -4.95403 0.806932 0.462117
lowerneck -15.7763 15.1434 -2.71641
upperneck 11.0812 21.1761 -1.34796
head 5.73753 10.0807 1.92141
rclavicle -6.75868e-015 -1.59028e-015
rhumerus -19.2139 12.3681 -81.0781
rradius 121.098
rwrist -22.9705
rhand -35.1622 13.9883
rfingers 7.12502
rthumb -8.30132 -15.8286
lclavicle -6.75868e-015 -1.59028e-015
lhumerus 39.5318 -66.6915 70.8867
lradius 64.7319
lwrist 3.38518
lhand -33.8577 -0.350275
lfingers 7.12502
lthumb -7.04217 29.5126
rfemur -34.8804 -1.63767 14.9899
rtibia 50.8772
rfoot -22.3153 -8.41291
rtoes -5.34125
lfemur -28.6315 8.84925 -7.17628
ltibia 35.2958
lfoot -10.8216 -1.93731
ltoes -12.4679
110
root 10.0037 16.8201 -9.18089 -173.86 -89.2547 -176.908
lowerback 17.3487 1.39443 1.695
upperback 4.45724 1.97465 1.79182
thorax -4.94614 0.846372 0.528966
lowerneck -15.8417 15.1223 -2.6625
upperneck 11.0831 21.1591 -1.47757
head 5.76941 10.0613 1.88395
rclavicle 2.18663e-014 7.95139e-015
rhumerus -19.184 12.6173 -81.1193
rradius 121.001
rwrist -23.0723
rhand -35.1176 13.9501
rfingers 7.12502
rthumb -8.2583 -15.8685
lclavicle 2.18663e-014 7.95139e-015
lhumerus 39.0078 -66.6132 71.2785
lradius 64.8491
lwrist 3.68759
lhand -33.7813 -0.237002
lfingers 7.12502
lthumb -6.96847 29.6283
rfemur -34.8907 -1.67569 14.9779
rtibia 50.9638
rfoot -22.3605 -8.51736
rtoes -5.31486
lfemur -28.7109 8.77113 -7.17832
ltibia 35.3525
lfoot -10.8533 -2.02301
ltoes -12.5376
111
root 10.0065 16.816 -9.18085 -173.88 -89.4076 -176.896
lowerback 17.3637 1.44568 1.62035
upperback 4.47293 2.02998 1.82288
thorax -4.94133 0.873828 0.592293
lowerneck -15.9101 15.1141 -2.61629
upperneck 11.0823 21.1615 -1.61127
head 5.80041 10.0508 1.84791
rclavicle 3.97569e-016 -3.97569e-015
rhumerus -19.1159 12.9062 -81.1469
rradius 120.894
rwrist -23.2053
rhand -35.1047 13.9179
rfingers 7.12502
rthumb -8.24579 -15.9011
lclavicle 3.97569e-016 -3.97569e-015
lhumerus 38.3834 -66.4801 71.777
lradius 64.9759
lwrist 3.94126
lhand -33.6663 -0.132158
lfingers 7.12502
lthumb -6.85748 29.7368
rfemur -34.9022 -1.75457 14.9761
rtibia 51.0484
rfoot -22.4115 -8.5857
rtoes -5.26698
lfemur -28.7988 8.70082 -7.1771
ltibia 35.4109
lfoot -10.8836 -2.12541
ltoes -12.5961
112
root 10.0098 16.8118 -9.18132 -174.157 -89.5651 -176.627
lowerback 17.3839 1.4887 1.55653
upperback 4.49121 2.07605 1.85048
thorax -4.93615 0.896565 0.647693
lowerneck -15.9706 15.1017 -2.63214
upperneck 11.057 21.1637 -1.70705
head 5.81159 10.0425 1.82714
rclavicle 2.38542e-015 -1.27222e-014
rhumerus -19.0179 13.1989 -81.1634
rradius 120.786
rwrist -23.3632
rhand -35.1306 13.8777
rfingers 7.12502
rthumb -8.27078 -15.9404
lclavicle 2.38542e-015 -1.27222e-014
lhumerus 37.6936 -66.3195 72.3567
lradius 65.1023
lwrist 4.12239
lhand -33.5201 -0.0961546
lfingers 7.12502
lthumb -6.71633 29.7773
rfemur -34.9146 -1.86637 14.9831
rtibia 51.1313
rfoot -22.4595 -8.62845
rtoes -5.24006
lfemur -28.89 8.64418 -7.17443
ltibia 35.4685
lfoot -10.9183 -2.24997
ltoes -12.6416
